# xmcd
#
# Track frame offsets: 
#        150
#        84712
#        110617
#        178716
#
# Disc length: 3223 seconds
#
# Revision: 1
# Processed by: cddbd v1.5.2PL0 Copyright (c) Steve Scherf et al.
# Submitted via: ExactAudioCopy v0.99pb5
#
DISCID=2e0c9504
DTITLE=lords of bukkake - lords of bukkake
DYEAR=2008
DGENRE=Doom
TTITLE0=black lung
TTITLE1=no excuses
TTITLE2=applicants
TTITLE3=devil's rain
EXTD=z
EXTT0=
EXTT1=
EXTT2=
EXTT3=
PLAYORDER=
